<svg xmlns="http://www.w3.org/2000/svg" width="24" height="32" fill="none"><path d="M18.154 3.559c-.233.926-1.384 5.277-1.994 7.372 2.614-.071 4.27-.058 5.716 0 1.884.076 2.72 1.704 1.657 3.274-2.286 3.378-3.646 5.222-5.96 7.973-2.636 3.132-4.754 5.532-7.577 7.779-3.317 2.64-5.219-.286-4.467-2.64.48-1.502 1.523-4.188 2.325-6.334-2.928.151-3.393.235-5.565.07-2.686-.204-2.751-2.273-1.513-4.005 1.512-2.115 3.74-5.181 6.392-8.088 2.787-3.056 5.745-6.026 6.624-6.81 2.83-2.521 4.809-.366 4.362 1.41z" fill="#7D0E2B"/><path d="M17.058 3.617c-.232.928-1.746 6.242-2.353 8.34 1.742-.105 4.978-.092 6.415 0 1.786.113 1.642 1.606.867 2.68-1.977 2.737-2.94 4.177-5.11 6.733-1.703 2.006-4.004 4.62-6.837 7.274s-4.11.82-3.513-1.058c.477-1.503 1.701-5.597 2.499-7.745-2.284.181-4.019.348-6.2.181-2.32-.177-1.773-1.807-.534-3.583 1.5-2.151 3.167-4.149 5.874-7.206 2.796-3.157 5.804-6.099 6.78-6.733 1.917-1.246 2.401-.042 2.112 1.117z" fill="url(#a)"/><path d="M13.128 11.698c-.258.833-.086 1.236.719 1.264h5.89c1.58 0 1.183.829.943 1.248-.69 1.205-3.44 4.183-4.911 5.946-2.193 2.625-4.728 5.456-6.823 7.31-.87.769-1.627.417-1.276-.844.536-1.922 1.641-5.307 2.164-6.745.517-1.42-.308-1.35-1.51-1.281-1.099.062-2.621.182-4.309.132-1.1-.033-1.477-.701-.902-1.65.574-.947 2.93-4.581 5.21-7.052 2.33-2.525 4.805-5.218 6.376-6.244 1.03-.672 1.406-.523 1.032.31-.373.833-2.344 6.773-2.603 7.606z" fill="url(#b)"/><path d="M10.945 9.244c.303.523 1.178.205 2.004-.49.837-.703.986-1.403.807-1.773-.18-.37-1.204-.131-2.04.674-.651.626-.853 1.28-.77 1.589zm1.452 2.729c.254-.829.577-1.753.944-2.464-.489.342-.672.392-2.214.684-1.458.276-2.893 1.147-3.708 2.234-1.245 1.66-1.778 2.623-2.066 3.608-.412 1.407.133 1.697 1.697 1.697.278 0 .81-.016 1.392-.034.699-.021 1.468-.045 1.95-.045.405 0 1.027.526.735 1.421 0 0 .615-.808 2.24-1.857.515-.332 1.1-.549 1.664-.757.946-.35 1.832-.678 2.22-1.494.257-.543-.134-1.181-.678-1.181-.14 0-.346.008-.6.017-.742.027-1.89.07-2.962-.017-1.222-.099-.897-1.01-.689-1.593.029-.08.055-.154.075-.219zm-1.974 12.508c-.754.562-.905-.001-.817-.616.208-1.446.413-2.345 1.25-3.41 1.104-1.407 1.712-1.878 3.107-2.295 1.48-.443 2.539-.3 1.626 1.045-.63.928-3.83 4.282-5.166 5.277z" fill="url(#c)"/><path d="M9.994 17.744c-1.099-.07-2.75.019-3.409.079.997-.34 3.498-1.114 5.35-1.297 1.851-.182 1.562 1.197 1.122 1.946-1.238 2.108-3.063 4.782-4.04 6.098.508-1.411 1.142-3.28 1.665-4.808.243-.71.186-1.962-.688-2.018z" fill="#fff"/><defs><linearGradient id="a" x1="7.568" y1="29.973" x2="16.301" y2="1.973" gradientUnits="userSpaceOnUse"><stop offset=".042" stop-color="#FFA800"/><stop offset=".196" stop-color="#ED6700"/><stop offset=".369" stop-color="#D2610A"/><stop offset=".544" stop-color="#ED6700"/><stop offset=".829" stop-color="#FF9800"/><stop offset="1" stop-color="#FFC700"/></linearGradient><linearGradient id="b" x1="12.05" y1="3.013" x2="12.05" y2="27.775" gradientUnits="userSpaceOnUse"><stop stop-color="#FFDE2E"/><stop offset=".711" stop-color="#FFE853"/></linearGradient><linearGradient id="c" x1="13.135" y1="3.993" x2=".417" y2="21.09" gradientUnits="userSpaceOnUse"><stop offset=".114" stop-color="#F1A104"/><stop offset=".402" stop-color="#F87B08"/><stop offset=".754" stop-color="#FFBD00"/></linearGradient></defs></svg>