<svg xmlns="http://www.w3.org/2000/svg" width="32" height="44"><path d="M17.012 7.44c2.293 0 4.306.427 6.04 1.28 1.733.853 3.093 2.133 4.08 3.84 1.013 1.68 1.52 3.773 1.52 6.28 0 1.6-.214 3.24-.64 4.92-.4 1.68-1.054 3.28-1.96 4.8a15.935 15.935 0 0 1-3.4 4.08c-1.36 1.2-2.987 2.16-4.88 2.88-1.894.693-4.067 1.04-6.52 1.04-1.627 0-3.187-.187-4.68-.56-1.494-.347-2.707-.84-3.64-1.48l3.6-5.6a7.474 7.474 0 0 0 2.4 1.08c.853.187 1.773.28 2.76.28 1.066 0 2.026-.133 2.88-.4.853-.267 1.6-.64 2.24-1.12a7.5 7.5 0 0 0 1.68-1.76c.48-.693.853-1.44 1.12-2.24.293-.8.506-1.653.64-2.56.08-.533.12-.987.12-1.36.026-.4.053-.787.08-1.16l1.92 1.04c-.56 1.173-1.254 2.147-2.08 2.92a8.103 8.103 0 0 1-2.68 1.68c-.987.347-2.054.52-3.2.52-1.6 0-3.107-.307-4.52-.92-1.387-.64-2.507-1.56-3.36-2.76-.854-1.2-1.28-2.667-1.28-4.4 0-2.133.506-3.96 1.52-5.48 1.013-1.52 2.4-2.707 4.16-3.56 1.786-.853 3.813-1.28 6.08-1.28zm.08 5.64c-1.12 0-2.08.347-2.88 1.04-.774.693-1.16 1.653-1.16 2.88 0 .987.32 1.76.96 2.32.64.56 1.506.84 2.6.84.8 0 1.506-.147 2.12-.44a3.539 3.539 0 0 0 1.44-1.36c.373-.587.56-1.24.56-1.96 0-.613-.147-1.16-.44-1.64a2.89 2.89 0 0 0-1.2-1.2c-.534-.32-1.2-.48-2-.48z" fill="url(#a)"/><defs><linearGradient id="a" x1="23.2" y1="-5.5" x2="10.63" y2="58.58" gradientUnits="userSpaceOnUse"><stop stop-color="#fff"/><stop offset="1" stop-color="#131119" stop-opacity="0"/></linearGradient></defs></svg>