<svg xmlns="http://www.w3.org/2000/svg" width="32" height="44"><path d="M15.06 36.56c-2.346 0-4.4-.333-6.16-1-1.76-.667-3.133-1.6-4.12-2.8-.986-1.227-1.48-2.64-1.48-4.24 0-1.947.534-3.587 1.6-4.92 1.067-1.36 2.534-2.387 4.4-3.08 1.894-.72 4.054-1.08 6.48-1.08 2.374 0 4.44.32 6.2.96 1.76.613 3.134 1.493 4.12 2.64.987 1.147 1.48 2.52 1.48 4.12 0 1.947-.533 3.627-1.6 5.04-1.066 1.387-2.546 2.467-4.44 3.24-1.866.747-4.026 1.12-6.48 1.12zm.12-5.56c1.334 0 2.4-.333 3.2-1 .827-.667 1.24-1.587 1.24-2.76 0-1.013-.36-1.8-1.08-2.36-.693-.56-1.64-.84-2.84-.84-1.333 0-2.413.333-3.24 1-.826.667-1.24 1.587-1.24 2.76 0 .987.374 1.773 1.12 2.36.747.56 1.694.84 2.84.84zm2.36-7.64c-2.133 0-4.026-.28-5.68-.84-1.626-.587-2.906-1.413-3.84-2.48-.906-1.093-1.36-2.373-1.36-3.84 0-1.84.494-3.4 1.48-4.68.987-1.307 2.347-2.307 4.08-3 1.734-.72 3.72-1.08 5.96-1.08 2.16 0 4.054.32 5.68.96 1.627.613 2.894 1.48 3.8 2.6.907 1.093 1.36 2.387 1.36 3.88 0 1.813-.492 3.36-1.48 4.64-.96 1.253-2.306 2.213-4.04 2.88-1.706.64-3.693.96-5.96.96zm.12-4.48c1.04 0 1.88-.28 2.52-.84.667-.587 1-1.387 1-2.4 0-.853-.293-1.507-.88-1.96-.56-.453-1.306-.68-2.24-.68-1.04 0-1.893.293-2.56.88-.64.56-.96 1.347-.96 2.36 0 .827.28 1.48.84 1.96.587.453 1.347.68 2.28.68z" fill="url(#a)"/><defs><linearGradient id="a" x1="23.2" y1="-5.5" x2="10.63" y2="58.58" gradientUnits="userSpaceOnUse"><stop stop-color="#fff"/><stop offset="1" stop-color="#131119" stop-opacity="0"/></linearGradient></defs></svg>