<svg xmlns="http://www.w3.org/2000/svg" width="32" height="44"><path d="M12.91 36.56c-2.027 0-3.947-.253-5.76-.76-1.814-.533-3.4-1.307-4.76-2.32l3.68-5.64c1.013.747 2.16 1.32 3.44 1.72 1.306.4 2.613.6 3.92.6 1.093 0 2.013-.12 2.76-.36.746-.267 1.306-.64 1.68-1.12.4-.507.6-1.107.6-1.8 0-.773-.307-1.36-.92-1.76-.587-.4-1.52-.6-2.8-.6h-3.4l1-5 9-8.12.44 2.72H7.39L8.63 8h20.24l-.96 4.96-9 8.12-3.6-2.12h1.76c1.946 0 3.613.307 5 .92 1.413.587 2.493 1.44 3.24 2.56.773 1.12 1.16 2.44 1.16 3.96 0 1.947-.587 3.693-1.76 5.24-1.147 1.52-2.747 2.72-4.8 3.6-2.054.88-4.387 1.32-7 1.32z" fill="url(#a)"/><defs><linearGradient id="a" x1="23.2" y1="-5.5" x2="10.63" y2="58.58" gradientUnits="userSpaceOnUse"><stop stop-color="#fff"/><stop offset="1" stop-color="#131119" stop-opacity="0"/></linearGradient></defs></svg>