<svg xmlns="http://www.w3.org/2000/svg" width="32" height="44"><path d="m3.067 36 1-4.96 12.24-9.52c.96-.773 1.707-1.44 2.24-2 .534-.56.907-1.093 1.12-1.6.24-.507.36-1.013.36-1.52 0-.773-.293-1.4-.88-1.88-.586-.48-1.426-.72-2.52-.72-.96 0-1.893.253-2.8.76-.88.48-1.68 1.16-2.4 2.04l-5.28-3.48c1.12-1.733 2.707-3.107 4.76-4.12 2.054-1.04 4.36-1.56 6.92-1.56 2.027 0 3.814.333 5.36 1 1.574.667 2.787 1.587 3.64 2.76.88 1.147 1.32 2.48 1.32 4 0 1.12-.2 2.2-.6 3.24-.4 1.04-1.08 2.107-2.04 3.2-.933 1.067-2.24 2.24-3.92 3.52l-9.56 7.4-1.08-2.84h15.2L24.867 36h-21.8z" fill="url(#a)"/><defs><linearGradient id="a" x1="23.2" y1="-5.5" x2="10.63" y2="58.58" gradientUnits="userSpaceOnUse"><stop stop-color="#fff"/><stop offset="1" stop-color="#131119" stop-opacity="0"/></linearGradient></defs></svg>