<svg xmlns="http://www.w3.org/2000/svg" width="32" height="44"><path d="M16.251 36.56c-2.266 0-4.28-.427-6.04-1.28a9.463 9.463 0 0 1-4.12-3.8c-.986-1.707-1.48-3.813-1.48-6.32 0-1.6.2-3.24.6-4.92a18.75 18.75 0 0 1 1.96-4.8c.907-1.52 2.04-2.88 3.4-4.08 1.387-1.2 3.027-2.147 4.92-2.84 1.894-.72 4.067-1.08 6.52-1.08 1.627 0 3.187.187 4.68.56 1.494.347 2.707.84 3.64 1.48l-3.6 5.6a6.83 6.83 0 0 0-2.44-1.04c-.853-.213-1.76-.32-2.72-.32-1.066 0-2.026.133-2.88.4a7.361 7.361 0 0 0-2.28 1.16 7.55 7.55 0 0 0-1.68 1.76c-.453.667-.826 1.4-1.12 2.2-.266.8-.466 1.653-.6 2.56-.08.533-.133 1-.16 1.4-.026.373-.04.747-.04 1.12l-1.92-1.04c.587-1.2 1.28-2.173 2.08-2.92a7.513 7.513 0 0 1 2.72-1.64c1.04-.373 2.187-.56 3.44-.56 1.547 0 2.987.32 4.32.96a7.789 7.789 0 0 1 3.28 2.72c.854 1.2 1.28 2.667 1.28 4.4 0 2.107-.506 3.933-1.52 5.48-1.013 1.52-2.413 2.707-4.2 3.56-1.76.853-3.773 1.28-6.04 1.28zm-.08-5.64c1.147 0 2.107-.347 2.88-1.04.774-.693 1.16-1.653 1.16-2.88 0-.987-.32-1.76-.96-2.32-.64-.56-1.506-.84-2.6-.84-.8 0-1.506.16-2.12.48a3.533 3.533 0 0 0-1.48 1.32c-.346.56-.52 1.213-.52 1.96 0 .613.134 1.173.4 1.68.294.48.707.88 1.24 1.2.56.293 1.227.44 2 .44z" fill="url(#a)"/><defs><linearGradient id="a" x1="23.2" y1="-5.5" x2="10.63" y2="58.58" gradientUnits="userSpaceOnUse"><stop stop-color="#fff"/><stop offset="1" stop-color="#131119" stop-opacity="0"/></linearGradient></defs></svg>