<svg xmlns="http://www.w3.org/2000/svg" width="32" height="44"><path d="M13.332 36.56c-2.027 0-3.96-.253-5.8-.76-1.814-.533-3.387-1.307-4.72-2.32l3.68-5.64c.986.747 2.12 1.32 3.4 1.72 1.306.4 2.626.6 3.96.6 1.626 0 2.866-.28 3.72-.84.88-.587 1.32-1.387 1.32-2.4 0-.8-.334-1.427-1-1.88-.667-.453-1.827-.68-3.48-.68h-8.04L11.052 8h17.8l-1.24 6.12h-15l4.76-3.48-3.16 11.04-3.32-3.48h5.52c3.44 0 6.04.68 7.8 2.04 1.786 1.333 2.68 3.253 2.68 5.76 0 2.16-.587 4.04-1.76 5.64-1.174 1.573-2.787 2.787-4.84 3.64-2.027.853-4.347 1.28-6.96 1.28z" fill="url(#a)"/><defs><linearGradient id="a" x1="23.2" y1="-5.5" x2="10.63" y2="58.58" gradientUnits="userSpaceOnUse"><stop stop-color="#fff"/><stop offset="1" stop-color="#131119" stop-opacity="0"/></linearGradient></defs></svg>