<svg xmlns="http://www.w3.org/2000/svg" width="32" height="44"><path d="M14.428 36.56c-2.133 0-3.986-.427-5.56-1.28-1.573-.853-2.786-2.08-3.64-3.68-.853-1.6-1.28-3.547-1.28-5.84 0-2.56.36-4.947 1.08-7.16.72-2.24 1.747-4.187 3.08-5.84 1.334-1.68 2.907-2.987 4.72-3.92 1.814-.933 3.814-1.4 6-1.4 2.134 0 3.974.427 5.52 1.28 1.574.853 2.787 2.08 3.64 3.68.88 1.6 1.32 3.547 1.32 5.84 0 2.56-.373 4.96-1.12 7.2-.72 2.213-1.746 4.16-3.08 5.84-1.306 1.653-2.866 2.947-4.68 3.88-1.813.933-3.813 1.4-6 1.4zm.76-6.48c1.04 0 1.947-.387 2.72-1.16.774-.8 1.414-1.8 1.92-3 .507-1.2.88-2.467 1.12-3.8.267-1.333.4-2.56.4-3.68 0-1.627-.306-2.787-.92-3.48-.586-.693-1.373-1.04-2.36-1.04-1.04 0-1.946.4-2.72 1.2-.773.773-1.413 1.76-1.92 2.96a19.655 19.655 0 0 0-1.16 3.8c-.24 1.333-.36 2.56-.36 3.68 0 1.627.294 2.787.88 3.48.614.693 1.414 1.04 2.4 1.04z" fill="url(#a)"/><defs><linearGradient id="a" x1="23.2" y1="-5.5" x2="10.63" y2="58.58" gradientUnits="userSpaceOnUse"><stop stop-color="#fff"/><stop offset="1" stop-color="#131119" stop-opacity="0"/></linearGradient></defs></svg>