<svg xmlns="http://www.w3.org/2000/svg" width="116" height="24"><path fill-rule="evenodd" clip-rule="evenodd" d="M5.345 3.07a5.347 5.347 0 0 0 1.857-1.205A5.469 5.469 0 0 0 8.428 0c-1.514.04-3.08 1.619-3.083 3.07zm-3.56 16.743c1.054-.497 2.465.31 3.5 1.624-.868.773-2.63.137-3.497-1.624h-.003zM.57 16.604c1.128-.28 2.343.784 3.08 2.232-1.002.592-2.588-.357-3.078-2.226l-.002-.006zM0 13.255h.003c.138 1.921 1.487 3.142 2.582 2.79-.432-1.56-1.425-2.835-2.582-2.79v-.003L0 13.255zm.08-3.399h.002c-.226 1.914.863 3.371 2.004 3.24-.125-1.603-.861-3.053-2.004-3.24v-.002l-.003.002zm.728-3.334c1.076.41 1.53 1.99 1.35 3.591C1.013 10.015.216 8.372.808 6.522zm1.369-3.157.004.003c-.957 1.715-.488 3.5.61 3.823.48-1.544.375-3.199-.61-3.823l.001-.003h-.005zM4.206.494c.84.815.586 2.492-.206 3.93-1.021-.54-1.12-2.404.206-3.93zM7.938 3.85c-.896 1.016-2.218 1.524-3.248.974.803-1.432 2.418-1.786 3.248-.974zm-1.43 2.032c-.651 1.146-1.845 1.894-2.96 1.562.499-1.54 1.983-2.185 2.96-1.562zm-.972 2.232c-.405 1.233-1.434 2.199-2.59 2.096.192-1.596 1.512-2.509 2.59-2.096zm-.514 2.358c-.162 1.28-.989 2.433-2.142 2.562-.115-1.594 1.005-2.752 2.142-2.562zm-.055 2.403c.082 1.289-.51 2.59-1.616 2.947-.418-1.56.466-2.905 1.616-2.947zm.4 2.375c.328 1.252 0 2.665-1.005 3.237-.726-1.465-.112-2.967 1.005-3.237zm.862 2.271c.583 1.175.559 2.646-.32 3.407-1.03-1.308-.74-2.919.32-3.407zm2.078 6.067c.132.103.187.257.12.349-.065.092-.235.08-.369-.025-2.97-2.332-4.948-5.736-5.526-9.51A15.133 15.133 0 0 1 4.95 3.627C.808 9.957 2 18.806 8.302 23.583l.005.006zM33.311 19.4c1.243.624 2.725.936 4.445.936 1.53 0 2.932-.248 4.206-.744 1.291-.496 2.398-1.192 3.322-2.088a9.715 9.715 0 0 0 2.151-3.192c.51-1.232.765-2.584.765-4.056 0-1.456-.335-2.736-1.004-3.84-.669-1.104-1.625-1.968-2.867-2.592-1.243-.64-2.725-.96-4.446-.96-1.53 0-2.94.248-4.23.744a9.578 9.578 0 0 0-3.298 2.112 9.395 9.395 0 0 0-2.15 3.192c-.51 1.216-.765 2.56-.765 4.032 0 1.456.334 2.736 1.003 3.84.67 1.104 1.625 1.976 2.868 2.616zm7.05-3.456c-.637.304-1.37.456-2.198.456-.845 0-1.562-.152-2.151-.456a3.433 3.433 0 0 1-1.339-1.32c-.302-.576-.454-1.232-.454-1.968 0-.784.12-1.528.359-2.232a5.925 5.925 0 0 1 1.027-1.872 4.732 4.732 0 0 1 1.673-1.296c.654-.304 1.386-.456 2.2-.456.843 0 1.553.16 2.126.48.59.304 1.036.736 1.338 1.296.319.56.478 1.216.478 1.968 0 .784-.12 1.528-.358 2.232a5.963 5.963 0 0 1-1.052 1.896 4.627 4.627 0 0 1-1.649 1.272zM19.638 6.968 17.096 20h4.66l2.542-13.032H29.5L30.24 3.2H15.327l-.74 3.768h5.051zM49.03 20l3.346-16.8h15.678L64.707 20h-4.66L62.59 6.968h-6.357L53.69 20h-4.66zm20.353-8.592-.693 3.504h6.955l.693-3.504h-6.955zM78.494 20l2.61-13.128h-3.112l.741-3.672h7.839L83.226 20h-4.732zm11.645-.432c.94.512 2.048.768 3.322.768 1.307 0 2.502-.28 3.585-.84a8.492 8.492 0 0 0 2.796-2.328c.797-1.008 1.41-2.176 1.841-3.504.446-1.344.669-2.784.669-4.32 0-1.376-.263-2.544-.789-3.504a5.276 5.276 0 0 0-2.175-2.208c-.924-.512-2.023-.768-3.298-.768-1.306 0-2.501.28-3.585.84a8.614 8.614 0 0 0-2.82 2.352c-.796.992-1.41 2.16-1.84 3.504-.43 1.328-.645 2.76-.645 4.296 0 1.376.255 2.544.765 3.504a5.273 5.273 0 0 0 2.174 2.208zm5.402-3.816c-.462.464-1.004.696-1.626.696-.589 0-1.067-.208-1.434-.624-.35-.416-.525-1.112-.525-2.088 0-.672.072-1.408.215-2.208.16-.8.39-1.56.693-2.28.303-.72.685-1.312 1.147-1.776.462-.48 1.004-.72 1.625-.72.59 0 1.06.208 1.41.624.367.416.55 1.112.55 2.088 0 .672-.08 1.408-.24 2.208-.142.8-.366 1.56-.668 2.28-.303.72-.685 1.32-1.147 1.8zm13.257-13.887c.53.528 1.163.938 1.857 1.205-.002-1.451-1.569-3.03-3.083-3.07a5.475 5.475 0 0 0 1.226 1.865zm1.917 19.572c1.035-1.314 2.446-2.12 3.5-1.624h-.003c-.868 1.761-2.629 2.397-3.497 1.624zm1.635-2.6c.737-1.449 1.952-2.512 3.08-2.233l-.002.006c-.49 1.87-2.076 2.818-3.078 2.226zm3.647-5.582H116l-.003-.003v.003zm0 0c-1.157-.045-2.15 1.23-2.582 2.79 1.095.352 2.444-.869 2.582-2.79zm-.079-3.398h.003l-.003-.003v.003zm0 0c-1.143.186-1.879 1.636-2.004 3.24 1.141.13 2.23-1.327 2.004-3.24zm-.726-3.335c-1.076.41-1.53 1.99-1.35 3.591 1.145-.098 1.942-1.741 1.35-3.591zm-1.373-3.154.004-.003h-.005l.001.003zm0 0c-.985.624-1.09 2.28-.609 3.823 1.097-.323 1.566-2.108.609-3.823zM111.794.494c-.84.815-.586 2.492.206 3.93 1.021-.54 1.12-2.404-.206-3.93zm-3.732 3.357c.896 1.016 2.218 1.524 3.248.974-.803-1.432-2.418-1.786-3.248-.974zm1.43 2.032c.651 1.146 1.845 1.894 2.959 1.562-.498-1.54-1.982-2.185-2.959-1.562zm.972 2.232c.405 1.233 1.434 2.199 2.59 2.096-.192-1.596-1.512-2.509-2.59-2.096zm.514 2.358c.162 1.28.989 2.433 2.142 2.562.115-1.594-1.005-2.752-2.142-2.562zm.055 2.403c-.082 1.289.509 2.59 1.616 2.947.419-1.56-.466-2.905-1.616-2.947zm-.4 2.375c-.328 1.252 0 2.665 1.005 3.237.726-1.465.112-2.967-1.005-3.237zm-.862 2.271c-.583 1.175-.559 2.646.32 3.407 1.03-1.308.739-2.919-.32-3.407zm-2.199 6.416c-.066-.092-.011-.246.121-.35l.005-.005c6.303-4.777 7.494-13.626 3.352-19.955 2.131 3.143 2.996 7 2.418 10.774-.578 3.775-2.557 7.18-5.526 9.51-.134.107-.304.118-.37.026z" fill="url(#a)"/><defs><linearGradient id="a" x1="177.5" y1="-7" x2="179.245" y2="40.141" gradientUnits="userSpaceOnUse"><stop stop-color="#fff"/><stop offset="1" stop-color="#131119" stop-opacity="0"/></linearGradient></defs></svg>